<svg height="512" viewBox="0 0 64 64" width="512" xmlns="http://www.w3.org/2000/svg"><path d="m5 9h54v52h-54z" fill="#aabece"/><path d="m9 13h46v20h-46z" fill="#f4f4e6"/><path d="m55 57h-11v-12h-24v12h-11v-20h46z" fill="#f4f4e6"/><path d="m3 3v3l2 3h54l2-3v-3z" fill="#7d8d9c"/><path d="m20 45h24v16h-24z" fill="#aad5e8"/><path d="m20 45h24v4h-24z" fill="#394d5c"/><path d="m31 49h2v12h-2z" fill="#7d8d9c"/><path d="m39 23-3.776-3h-10.024l-4.2 4.294v4.706h4a2 2 0 0 0 4 0h6a2 2 0 0 0 4 0h6v-5z" fill="#de463e"/><path d="m17 41h30v4h-30z" fill="#7d8d9c"/><g fill="#cfdfe8"><path d="m7 3h2v3h-2z"/><path d="m12 3h2v3h-2z"/><path d="m36 3h2v3h-2z"/><path d="m48 3h2v3h-2z"/></g><path d="m27 54h2v2h-2z" fill="#fcf05a"/><path d="m35 54h2v2h-2z" fill="#fcf05a"/></svg>